190703_Arrow_XtraBold.ufo
<glyph name="exclam" format="1">
  <advance width="281"/>
  <unicode hex="0021"/>
  <outline>
    <contour>
      <point x="105" y="221" type="line"/>
      <point x="176" y="221" type="line"/>
      <point x="229" y="674" type="line" name="_p_cornerRadius:76.0"/>
      <point x="42" y="654" type="line"/>
    </contour>
    <contour>
      <point x="140" y="-10" type="curve" smooth="yes"/>
      <point x="188" y="-10"/>
      <point x="221" y="25"/>
      <point x="221" y="74" type="curve" smooth="yes"/>
      <point x="221" y="121"/>
      <point x="187" y="155"/>
      <point x="140" y="155" type="curve" smooth="yes"/>
      <point x="93" y="155"/>
      <point x="60" y="121"/>
      <point x="60" y="74" type="curve" smooth="yes"/>
      <point x="60" y="25"/>
      <point x="91" y="-10"/>
    </contour>
  </outline>
</glyph>
<glyph name="ampersand" format="1">
  <advance width="785"/>
  <unicode hex="0026"/>
  <outline>
    <contour>
      <point x="625" y="-17" type="curve" smooth="yes"/>
      <point x="670" y="-17"/>
      <point x="721" y="-3"/>
      <point x="745" y="3" type="curve"/>
      <point x="745" y="61" type="line"/>
      <point x="682" y="68" type="line" smooth="yes"/>
      <point x="629" y="74"/>
      <point x="614" y="103"/>
      <point x="587" y="147" type="curve" smooth="yes"/>
      <point x="526" y="249"/>
      <point x="441" y="310"/>
      <point x="346" y="390" type="curve" smooth="yes"/>
      <point x="303" y="426"/>
      <point x="261" y="457"/>
      <point x="261" y="503" type="curve" smooth="yes"/>
      <point x="261" y="544"/>
      <point x="287" y="575"/>
      <point x="328" y="575" type="curve" smooth="yes"/>
      <point x="368" y="575"/>
      <point x="389" y="540"/>
      <point x="389" y="500" type="curve" smooth="yes"/>
      <point x="389" y="453"/>
      <point x="368" y="410"/>
      <point x="314" y="389" type="curve"/>
      <point x="349" y="363" type="line"/>
      <point x="430" y="384"/>
      <point x="528" y="435"/>
      <point x="528" y="518" type="curve" smooth="yes"/>
      <point x="528" y="611"/>
      <point x="399" y="649"/>
      <point x="316" y="649" type="curve" smooth="yes"/>
      <point x="219" y="649"/>
      <point x="100" y="600"/>
      <point x="100" y="493" type="curve" smooth="yes"/>
      <point x="100" y="439"/>
      <point x="141" y="382"/>
      <point x="187" y="345" type="curve" smooth="yes"/>
      <point x="290" y="262"/>
      <point x="360" y="198"/>
      <point x="429" y="86" type="curve" smooth="yes"/>
      <point x="474" y="13"/>
      <point x="542" y="-17"/>
    </contour>
    <contour>
      <point x="232" y="-15" type="curve" smooth="yes"/>
      <point x="327" y="-15"/>
      <point x="408" y="49"/>
      <point x="455" y="132" type="curve"/>
      <point x="431" y="192" type="line"/>
      <point x="399" y="136"/>
      <point x="350" y="110"/>
      <point x="285" y="110" type="curve" smooth="yes"/>
      <point x="223" y="110"/>
      <point x="170" y="152"/>
      <point x="170" y="215" type="curve" smooth="yes"/>
      <point x="170" y="276"/>
      <point x="209" y="324"/>
      <point x="269" y="340" type="curve"/>
      <point x="214" y="362" type="line"/>
      <point x="116" y="331"/>
      <point x="30" y="261"/>
      <point x="30" y="158" type="curve" smooth="yes"/>
      <point x="30" y="47"/>
      <point x="121" y="-15"/>
    </contour>
    <contour>
      <point x="512" y="165" type="line"/>
      <point x="698" y="405" type="line"/>
      <point x="653" y="354" type="line"/>
      <point x="743" y="370" type="line"/>
      <point x="743" y="427" type="line"/>
      <point x="506" y="427" type="line"/>
      <point x="506" y="370" type="line"/>
      <point x="607" y="354" type="line"/>
      <point x="588" y="407" type="line"/>
      <point x="460" y="192" type="line"/>
    </contour>
  </outline>
</glyph>
<glyph name="parenleft" format="1">
  <advance width="301"/>
  <unicode hex="0028"/>
  <outline>
    <contour>
      <point x="214" y="723" type="line"/>
      <point x="88" y="581"/>
      <point x="40" y="436"/>
      <point x="40" y="292" type="curve" smooth="yes"/>
      <point x="40" y="147"/>
      <point x="89" y="2"/>
      <point x="216" y="-141" type="curve"/>
      <point x="291" y="-124" type="line"/>
      <point x="190" y="14"/>
      <point x="165" y="154"/>
      <point x="165" y="294" type="curve" smooth="yes"/>
      <point x="165" y="432"/>
      <point x="189" y="571"/>
      <point x="288" y="707" type="curve"/>
    </contour>
  </outline>
</glyph>
<glyph name="asterisk" format="1">
  <advance width="375"/>
  <unicode hex="002A"/>
  <outline>
    <contour>
      <point x="110" y="371" type="line"/>
      <point x="186" y="448" type="line"/>
      <point x="262" y="371" type="line"/>
      <point x="312" y="407" type="line"/>
      <point x="265" y="503" type="line"/>
      <point x="360" y="553" type="line"/>
      <point x="342" y="611" type="line"/>
      <point x="235" y="594" type="line"/>
      <point x="217" y="700" type="line"/>
      <point x="158" y="700" type="line"/>
      <point x="141" y="594" type="line"/>
      <point x="34" y="611" type="line"/>
      <point x="15" y="553" type="line"/>
      <point x="110" y="503" type="line"/>
      <point x="61" y="407" type="line"/>
    </contour>
  </outline>
</glyph>
<glyph name="period" format="1">
  <advance width="223"/>
  <unicode hex="002E"/>
  <outline>
    <contour>
      <point x="111" y="-10" type="curve" smooth="yes"/>
      <point x="159" y="-10"/>
      <point x="192" y="25"/>
      <point x="192" y="74" type="curve" smooth="yes"/>
      <point x="192" y="121"/>
      <point x="158" y="155"/>
      <point x="111" y="155" type="curve" smooth="yes"/>
      <point x="64" y="155"/>
      <point x="31" y="121"/>
      <point x="31" y="74" type="curve" smooth="yes"/>
      <point x="31" y="25"/>
      <point x="62" y="-10"/>
    </contour>
  </outline>
</glyph>
<glyph name="zero" format="1">
  <advance width="603"/>
  <unicode hex="0030"/>
  <outline>
    <contour>
      <point x="305" y="67" type="curve" smooth="yes"/>
      <point x="226" y="67"/>
      <point x="173" y="136"/>
      <point x="172" y="240" type="curve" smooth="yes"/>
      <point x="171" y="351"/>
      <point x="220" y="422"/>
      <point x="299" y="422" type="curve" smooth="yes"/>
      <point x="374" y="422"/>
      <point x="422" y="352"/>
      <point x="423" y="242" type="curve" smooth="yes"/>
      <point x="424" y="135"/>
      <point x="378" y="67"/>
    </contour>
    <contour>
      <point x="290" y="-16" type="curve" smooth="yes"/>
      <point x="451" y="-16"/>
      <point x="568" y="94"/>
      <point x="568" y="247" type="curve" smooth="yes"/>
      <point x="568" y="397"/>
      <point x="461" y="506"/>
      <point x="313" y="506" type="curve" smooth="yes"/>
      <point x="152" y="506"/>
      <point x="35" y="394"/>
      <point x="35" y="239" type="curve" smooth="yes"/>
      <point x="35" y="91"/>
      <point x="142" y="-16"/>
    </contour>
  </outline>
</glyph>
<glyph name="one" format="1">
  <advance width="421"/>
  <unicode hex="0031"/>
  <outline>
    <contour>
      <point x="35" y="0" type="line"/>
      <point x="389" y="0" type="line"/>
      <point x="389" y="56" type="line"/>
      <point x="261" y="69" type="line"/>
      <point x="291" y="36" type="line"/>
      <point x="289" y="505" type="line"/>
      <point x="28" y="457" type="line"/>
      <point x="28" y="395" type="line"/>
      <point x="164" y="395" type="line"/>
      <point x="134" y="425" type="line"/>
      <point x="134" y="36" type="line"/>
      <point x="164" y="69" type="line"/>
      <point x="35" y="56" type="line"/>
    </contour>
  </outline>
</glyph>
<glyph name="two" format="1">
  <advance width="500"/>
  <unicode hex="0032"/>
  <outline>
    <contour>
      <point x="28.0" y="0.0" type="line"/>
      <point x="461.0" y="0.0" type="line"/>
      <point x="481.0" y="196.0" type="line"/>
      <point x="444.0" y="196.0" type="line"/>
      <point x="383.0" y="121.0" type="line" smooth="yes"/>
      <point x="368.0" y="103.0"/>
      <point x="356.0" y="96.0"/>
      <point x="334.0" y="96.0" type="curve"/>
      <point x="128.0" y="96.0" type="line"/>
      <point x="142.0" y="89.0" type="line"/>
      <point x="257" y="158" type="line" smooth="yes"/>
      <point x="366" y="223"/>
      <point x="434" y="284"/>
      <point x="434" y="362" type="curve" smooth="yes"/>
      <point x="434" y="453"/>
      <point x="367.0" y="505.0"/>
      <point x="249.0" y="505.0" type="curve" smooth="yes"/>
      <point x="163.0" y="505.0"/>
      <point x="78.0" y="463.0"/>
      <point x="24.0" y="395.0" type="curve"/>
      <point x="58.0" y="351.0" type="line"/>
      <point x="123.0" y="404.0"/>
      <point x="160" y="415"/>
      <point x="196" y="415" type="curve" smooth="yes"/>
      <point x="245" y="415"/>
      <point x="273" y="388"/>
      <point x="273" y="345" type="curve" smooth="yes"/>
      <point x="273" y="296"/>
      <point x="245.0" y="262.0"/>
      <point x="171.0" y="192.0" type="curve" smooth="yes"/>
      <point x="19.0" y="49.0" type="line"/>
    </contour>
  </outline>
</glyph>
<glyph name="three" format="1">
  <advance width="506"/>
  <unicode hex="0033"/>
  <outline>
    <contour>
      <point x="209" y="-165" type="curve" smooth="yes"/>
      <point x="374" y="-165"/>
      <point x="476" y="-88"/>
      <point x="476" y="37" type="curve" smooth="yes"/>
      <point x="476" y="141"/>
      <point x="363" y="216"/>
      <point x="227" y="203" type="curve"/>
      <point x="228" y="194" type="line"/>
      <point x="388" y="241"/>
      <point x="436" y="291"/>
      <point x="436" y="370" type="curve" smooth="yes"/>
      <point x="436" y="461"/>
      <point x="365" y="506"/>
      <point x="264" y="506" type="curve" smooth="yes"/>
      <point x="176" y="506"/>
      <point x="101" y="471"/>
      <point x="37" y="406" type="curve"/>
      <point x="61" y="363" type="line"/>
      <point x="93" y="388"/>
      <point x="140" y="403"/>
      <point x="183" y="403" type="curve" smooth="yes"/>
      <point x="242" y="403"/>
      <point x="279" y="376"/>
      <point x="279" y="333" type="curve" smooth="yes"/>
      <point x="279" y="264"/>
      <point x="250" y="239"/>
      <point x="119" y="193" type="curve"/>
      <point x="126" y="137" type="line"/>
      <point x="240" y="136"/>
      <point x="312" y="85"/>
      <point x="312" y="7" type="curve" smooth="yes"/>
      <point x="312" y="-60"/>
      <point x="277" y="-104"/>
      <point x="224" y="-105" type="curve" smooth="yes"/>
      <point x="162" y="-105"/>
      <point x="129" y="-74"/>
      <point x="117" y="-2" type="curve" smooth="yes"/>
      <point x="109" y="46" type="line"/>
      <point x="46" y="41"/>
      <point x="9" y="7"/>
      <point x="12" y="-43" type="curve" smooth="yes"/>
      <point x="16" y="-115"/>
      <point x="98" y="-165"/>
    </contour>
  </outline>
</glyph>
<glyph name="four" format="1">
  <advance width="596"/>
  <unicode hex="0034"/>
  <outline>
    <contour>
      <point x="316" y="-153" type="line"/>
      <point x="468" y="-153" type="line"/>
      <point x="468" y="20" type="line"/>
      <point x="583" y="20" type="line"/>
      <point x="593" y="106" type="line"/>
      <point x="468" y="106" type="line"/>
      <point x="468" y="488" type="line"/>
      <point x="389" y="496" type="line"/>
      <point x="29" y="76" type="line"/>
      <point x="29" y="20" type="line"/>
      <point x="316" y="20" type="line"/>
    </contour>
    <contour>
      <point x="120" y="80" type="line"/>
      <point x="411" y="422" type="line"/>
      <point x="316" y="365" type="line"/>
      <point x="316" y="106" type="line"/>
      <point x="75" y="106" type="line"/>
    </contour>
  </outline>
</glyph>
<glyph name="six" format="1">
  <advance width="542"/>
  <unicode hex="0036"/>
  <outline>
    <contour>
      <point x="270" y="-15" type="curve" smooth="yes"/>
      <point x="405" y="-15"/>
      <point x="511" y="80"/>
      <point x="511" y="201" type="curve" smooth="yes"/>
      <point x="511" y="302"/>
      <point x="437" y="376"/>
      <point x="336" y="376" type="curve" smooth="yes"/>
      <point x="290" y="376"/>
      <point x="245" y="361"/>
      <point x="207" y="333" type="curve" smooth="yes"/>
      <point x="164" y="301" type="line"/>
      <point x="169" y="262" type="line"/>
      <point x="193" y="282" type="line" smooth="yes"/>
      <point x="211" y="298"/>
      <point x="238" y="308"/>
      <point x="262" y="308" type="curve" smooth="yes"/>
      <point x="324" y="308"/>
      <point x="359" y="261"/>
      <point x="359" y="177" type="curve" smooth="yes"/>
      <point x="359" y="108"/>
      <point x="332" y="68"/>
      <point x="285" y="68" type="curve" smooth="yes"/>
      <point x="214" y="68"/>
      <point x="179" y="126"/>
      <point x="179" y="245" type="curve" smooth="yes"/>
      <point x="179" y="412"/>
      <point x="278" y="540"/>
      <point x="407" y="540" type="curve" smooth="yes"/>
      <point x="445" y="540"/>
      <point x="476" y="537"/>
      <point x="504" y="531" type="curve"/>
      <point x="504" y="604" type="line"/>
      <point x="466" y="619"/>
      <point x="429" y="626"/>
      <point x="389" y="626" type="curve" smooth="yes"/>
      <point x="178" y="626"/>
      <point x="30" y="472"/>
      <point x="30" y="253" type="curve" smooth="yes"/>
      <point x="30" y="88"/>
      <point x="122" y="-15"/>
    </contour>
  </outline>
</glyph>
<glyph name="eight" format="1">
  <advance width="580"/>
  <unicode hex="0038"/>
  <outline>
    <contour>
      <point x="281" y="-15" type="curve" smooth="yes"/>
      <point x="416" y="-15"/>
      <point x="540" y="41"/>
      <point x="540" y="176" type="curve" smooth="yes"/>
      <point x="540" y="265"/>
      <point x="466" y="312"/>
      <point x="386" y="351" type="curve"/>
      <point x="448" y="374"/>
      <point x="509" y="404"/>
      <point x="509" y="488" type="curve" smooth="yes"/>
      <point x="509" y="585"/>
      <point x="403" y="632"/>
      <point x="293" y="632" type="curve" smooth="yes"/>
      <point x="167" y="632"/>
      <point x="54" y="576"/>
      <point x="54" y="445" type="curve" smooth="yes"/>
      <point x="54" y="368"/>
      <point x="108" y="313"/>
      <point x="177" y="277" type="curve"/>
      <point x="103" y="259"/>
      <point x="40" y="215"/>
      <point x="40" y="139" type="curve" smooth="yes"/>
      <point x="40" y="27"/>
      <point x="159" y="-15"/>
    </contour>
    <contour>
      <point x="286" y="38" type="curve" smooth="yes"/>
      <point x="217" y="38"/>
      <point x="180" y="97"/>
      <point x="180" y="166" type="curve" smooth="yes"/>
      <point x="180" y="201"/>
      <point x="185" y="235"/>
      <point x="207" y="262" type="curve"/>
      <point x="248" y="249"/>
      <point x="379" y="221"/>
      <point x="379" y="121" type="curve" smooth="yes"/>
      <point x="379" y="69"/>
      <point x="338" y="38"/>
    </contour>
    <contour>
      <point x="355" y="365" type="curve"/>
      <point x="280" y="401"/>
      <point x="198" y="425"/>
      <point x="198" y="508" type="curve" smooth="yes"/>
      <point x="198" y="554"/>
      <point x="234" y="576"/>
      <point x="275" y="576" type="curve" smooth="yes"/>
      <point x="343" y="576"/>
      <point x="376" y="524"/>
      <point x="376" y="463" type="curve" smooth="yes"/>
      <point x="376" y="429"/>
      <point x="369" y="396"/>
    </contour>
  </outline>
</glyph>
<glyph name="question" format="1">
  <advance width="428"/>
  <unicode hex="003F"/>
  <outline>
    <contour>
      <point x="154" y="-15" type="curve" smooth="yes"/>
      <point x="206" y="-15"/>
      <point x="241" y="21"/>
      <point x="241" y="73" type="curve" smooth="yes"/>
      <point x="241" y="126"/>
      <point x="206" y="161"/>
      <point x="154" y="161" type="curve" smooth="yes"/>
      <point x="103" y="161"/>
      <point x="68" y="125"/>
      <point x="68" y="73" type="curve" smooth="yes"/>
      <point x="68" y="21"/>
      <point x="102" y="-15"/>
    </contour>
    <contour>
      <point x="113" y="218" type="line"/>
      <point x="157" y="220" type="line"/>
      <point x="154" y="258" type="line" smooth="yes"/>
      <point x="153" y="273"/>
      <point x="158.47058823529412" y="282.0"/>
      <point x="182" y="282" type="curve" smooth="yes"/>
      <point x="325" y="285"/>
      <point x="388" y="355"/>
      <point x="388" y="474" type="curve" smooth="yes"/>
      <point x="388" y="584"/>
      <point x="290" y="674"/>
      <point x="150" y="673" type="curve" smooth="yes"/>
      <point x="72" y="673"/>
      <point x="21" y="634"/>
      <point x="47" y="524" type="curve"/>
      <point x="47" y="524"/>
      <point x="82" y="528"/>
      <point x="125" y="528" type="curve" smooth="yes"/>
      <point x="194" y="528"/>
      <point x="290" y="518"/>
      <point x="290" y="465" type="curve" smooth="yes"/>
      <point x="290" y="415"/>
      <point x="219" y="401"/>
      <point x="145" y="401" type="curve" smooth="yes"/>
      <point x="105" y="401"/>
      <point x="73" y="405"/>
      <point x="73" y="405" type="curve"/>
    </contour>
  </outline>
</glyph>
<glyph name="at" format="1">
  <advance width="777.0"/>
  <unicode hex="0040"/>
  <outline>
    <contour>
      <point x="481" y="369" type="line"/>
      <point x="442" y="182" type="line" smooth="yes"/>
      <point x="426" y="106"/>
      <point x="447" y="74"/>
      <point x="507" y="74" type="curve" smooth="yes"/>
      <point x="629" y="74"/>
      <point x="727" y="185"/>
      <point x="727" y="326" type="curve" smooth="yes"/>
      <point x="727" y="482"/>
      <point x="608" y="577"/>
      <point x="431" y="577" type="curve" smooth="yes"/>
      <point x="223" y="577"/>
      <point x="40" y="403"/>
      <point x="40" y="194" type="curve" smooth="yes"/>
      <point x="40" y="14"/>
      <point x="187" y="-97"/>
      <point x="366" y="-97" type="curve" smooth="yes"/>
      <point x="462" y="-97"/>
      <point x="549" y="-67"/>
      <point x="601" y="-24" type="curve"/>
      <point x="590" y="13" type="line"/>
      <point x="536" y="-22"/>
      <point x="464" y="-31"/>
      <point x="402" y="-31" type="curve" smooth="yes"/>
      <point x="253" y="-31"/>
      <point x="155" y="49"/>
      <point x="155" y="203" type="curve" smooth="yes"/>
      <point x="155" y="389"/>
      <point x="265" y="508"/>
      <point x="438" y="508" type="curve" smooth="yes"/>
      <point x="574" y="508"/>
      <point x="656" y="444"/>
      <point x="656" y="319" type="curve" smooth="yes"/>
      <point x="656" y="219"/>
      <point x="612" y="127"/>
      <point x="562" y="127" type="curve" smooth="yes"/>
      <point x="540" y="127"/>
      <point x="534" y="141"/>
      <point x="540" y="169" type="curve" smooth="yes"/>
      <point x="591" y="418" type="line"/>
      <point x="520" y="393" type="line"/>
      <point x="520" y="393"/>
      <point x="494" y="415"/>
      <point x="436" y="415" type="curve" smooth="yes"/>
      <point x="333" y="415"/>
      <point x="225" y="282"/>
      <point x="225" y="159" type="curve" smooth="yes"/>
      <point x="225" y="101"/>
      <point x="260" y="74"/>
      <point x="290" y="74" type="curve" smooth="yes"/>
      <point x="345" y="74"/>
      <point x="410" y="126"/>
      <point x="472" y="215" type="curve"/>
      <point x="481" y="279" type="line"/>
      <point x="426" y="198"/>
      <point x="378" y="146"/>
      <point x="358" y="146" type="curve" smooth="yes"/>
      <point x="346" y="146"/>
      <point x="339" y="160"/>
      <point x="339" y="185" type="curve" smooth="yes"/>
      <point x="339" y="280"/>
      <point x="390" y="370"/>
      <point x="443" y="370" type="curve" smooth="yes"/>
      <point x="463" y="370"/>
      <point x="486" y="363"/>
      <point x="500" y="352" type="curve"/>
    </contour>
  </outline>
</glyph>
<glyph name="A" format="1">
  <advance width="736"/>
  <unicode hex="0041"/>
  <outline>
    <contour>
      <point x="0" y="0" type="line"/>
      <point x="297" y="0" type="line"/>
      <point x="297" y="60" type="line"/>
      <point x="161" y="70" type="line"/>
      <point x="182" y="41" type="line"/>
      <point x="332" y="540" type="line"/>
      <point x="314" y="540" type="line"/>
      <point x="483" y="41" type="line"/>
      <point x="504" y="70" type="line"/>
      <point x="371" y="60" type="line"/>
      <point x="371" y="0" type="line"/>
      <point x="736" y="0" type="line"/>
      <point x="736" y="60" type="line"/>
      <point x="631" y="71" type="line"/>
      <point x="671" y="42" type="line"/>
      <point x="445" y="660" type="line"/>
      <point x="286" y="642" type="line"/>
      <point x="62" y="42" type="line"/>
      <point x="102" y="71" type="line"/>
      <point x="0" y="60" type="line"/>
    </contour>
    <contour>
      <point x="193" y="188" type="line"/>
      <point x="485" y="188" type="line"/>
      <point x="485" y="260" type="line"/>
      <point x="193" y="260" type="line"/>
    </contour>
    <contour>
      <point x="600.0" y="0.0" type="move" name="ogonek"/>
    </contour>
    <contour>
      <point x="361.0" y="642.0" type="move" name="topuc"/>
    </contour>
    <contour>
      <point x="340" y="0" type="move" name="bottom"/>
    </contour>
  </outline>
</glyph>
<glyph name="D" format="1">
  <advance width="792"/>
  <unicode hex="0044"/>
  <outline>
    <contour>
      <point x="32" y="0" type="line"/>
      <point x="389" y="-2" type="line" smooth="yes"/>
      <point x="597" y="-3"/>
      <point x="752" y="111"/>
      <point x="752" y="325" type="curve" smooth="yes"/>
      <point x="752" y="531"/>
      <point x="625" y="646"/>
      <point x="370" y="644" type="curve" smooth="yes"/>
      <point x="32" y="642" type="line"/>
      <point x="32" y="582" type="line"/>
      <point x="160" y="568" type="line"/>
      <point x="130" y="602" type="line"/>
      <point x="130" y="40" type="line"/>
      <point x="160" y="74" type="line"/>
      <point x="32" y="60" type="line"/>
    </contour>
    <contour>
      <point x="381" y="72" type="curve" smooth="yes"/>
      <point x="314" y="72"/>
      <point x="300" y="99"/>
      <point x="300" y="151" type="curve" smooth="yes"/>
      <point x="300" y="565" type="line"/>
      <point x="335" y="565" type="line" smooth="yes"/>
      <point x="480" y="565"/>
      <point x="571" y="472"/>
      <point x="571" y="327" type="curve" smooth="yes"/>
      <point x="571" y="182"/>
      <point x="512" y="72"/>
    </contour>
    <contour>
      <point x="401.0" y="642.0" type="move" name="topuc"/>
    </contour>
  </outline>
</glyph>
<glyph name="G" format="1">
  <advance width="734"/>
  <unicode hex="0047"/>
  <outline>
    <contour>
      <point x="396" y="-15" type="curve" smooth="yes"/>
      <point x="499" y="-15"/>
      <point x="605" y="9"/>
      <point x="690" y="53" type="curve"/>
      <point x="631" y="112" type="line"/>
      <point x="640.0" y="265.0" type="line"/>
      <point x="709.0" y="275.0" type="line"/>
      <point x="709.0" y="335.0" type="line"/>
      <point x="372.0" y="335.0" type="line"/>
      <point x="372.0" y="275.0" type="line"/>
      <point x="470.0" y="265.0" type="line"/>
      <point x="490.0" y="33.0" type="line"/>
      <point x="510.0" y="87.0" type="line"/>
      <point x="482.0" y="64.0"/>
      <point x="445.0" y="60.0"/>
      <point x="409.0" y="60.0" type="curve" smooth="yes"/>
      <point x="276.0" y="60.0"/>
      <point x="225.0" y="189.0"/>
      <point x="225.0" y="322.0" type="curve" smooth="yes"/>
      <point x="225.0" y="475.0"/>
      <point x="264.0" y="583.0"/>
      <point x="418.0" y="583.0" type="curve" smooth="yes"/>
      <point x="459.0" y="583.0"/>
      <point x="495.0" y="573.0"/>
      <point x="535.0" y="545.0" type="curve"/>
      <point x="497.0" y="592.0" type="line"/>
      <point x="570.0" y="429.0" type="line"/>
      <point x="630.0" y="429.0" type="line"/>
      <point x="620.0" y="649.0" type="line"/>
      <point x="521.0" y="635.0" type="line"/>
      <point x="485.0" y="647.0"/>
      <point x="449.0" y="655.0"/>
      <point x="411.0" y="655.0" type="curve" smooth="yes"/>
      <point x="199.0" y="655.0"/>
      <point x="40.0" y="532.0"/>
      <point x="40.0" y="312.0" type="curve" smooth="yes"/>
      <point x="40.0" y="109.0"/>
      <point x="185" y="-15"/>
    </contour>
    <contour>
      <point x="377.0" y="-1.0" type="move" name="bottom"/>
    </contour>
    <contour>
      <point x="395.0" y="641.0" type="move" name="topuc"/>
    </contour>
  </outline>
</glyph>
<glyph name="J" format="1">
  <advance width="420.0"/>
  <unicode hex="004A"/>
  <outline>
    <contour>
      <point x="8" y="-178" type="line"/>
      <point x="114" y="-157" type="line" smooth="yes"/>
      <point x="223" y="-135"/>
      <point x="300" y="-82"/>
      <point x="300" y="39" type="curve" smooth="yes"/>
      <point x="300" y="602" type="line"/>
      <point x="270" y="568" type="line"/>
      <point x="399" y="582" type="line"/>
      <point x="399" y="642" type="line"/>
      <point x="32" y="642" type="line"/>
      <point x="32" y="582" type="line"/>
      <point x="160" y="568" type="line"/>
      <point x="130" y="602" type="line"/>
      <point x="130" y="31" type="line" smooth="yes"/>
      <point x="130" y="-39"/>
      <point x="119" y="-56"/>
      <point x="48" y="-92" type="curve" smooth="yes"/>
      <point x="-6" y="-119" type="line"/>
    </contour>
    <contour>
      <point x="215.0" y="642" type="move" name="topuc"/>
    </contour>
  </outline>
</glyph>
<glyph name="K" format="1">
  <advance width="813"/>
  <unicode hex="004B"/>
  <outline>
    <contour>
      <point x="444" y="0" type="line"/>
      <point x="823" y="0" type="line"/>
      <point x="823" y="60" type="line"/>
      <point x="708" y="73" type="line"/>
      <point x="756" y="45" type="line"/>
      <point x="480" y="391" type="line"/>
      <point x="477" y="346" type="line"/>
      <point x="714" y="597" type="line"/>
      <point x="663" y="573" type="line"/>
      <point x="780" y="585" type="line"/>
      <point x="780" y="642" type="line"/>
      <point x="443" y="642" type="line"/>
      <point x="443" y="585" type="line"/>
      <point x="557" y="571" type="line"/>
      <point x="548" y="597" type="line"/>
      <point x="381" y="370" type="line"/>
      <point x="257" y="352" type="line"/>
      <point x="257" y="289" type="line"/>
      <point x="350" y="292" type="line"/>
      <point x="538" y="46" type="line"/>
      <point x="550" y="74" type="line"/>
      <point x="444" y="60" type="line"/>
    </contour>
    <contour>
      <point x="32" y="0" type="line"/>
      <point x="379" y="0" type="line"/>
      <point x="379" y="60" type="line"/>
      <point x="270" y="74" type="line"/>
      <point x="300" y="40" type="line"/>
      <point x="300" y="602" type="line"/>
      <point x="270" y="568" type="line"/>
      <point x="379" y="582" type="line"/>
      <point x="379" y="642" type="line"/>
      <point x="32" y="642" type="line"/>
      <point x="32" y="582" type="line"/>
      <point x="160" y="568" type="line"/>
      <point x="130" y="602" type="line"/>
      <point x="130" y="40" type="line"/>
      <point x="160" y="74" type="line"/>
      <point x="32" y="60" type="line"/>
    </contour>
    <contour>
      <point x="406" y="640" type="move" name="topuc"/>
    </contour>
    <contour>
      <point x="406" y="0" type="move" name="bottom"/>
    </contour>
  </outline>
</glyph>
<glyph name="M" format="1">
  <advance width="989"/>
  <unicode hex="004D"/>
  <outline>
    <contour>
      <point x="32" y="0" type="line"/>
      <point x="327" y="0" type="line"/>
      <point x="327" y="60" type="line"/>
      <point x="185" y="73" type="line"/>
      <point x="215" y="40" type="line"/>
      <point x="222" y="540" type="line"/>
      <point x="211" y="538" type="line"/>
      <point x="435" y="-10" type="line"/>
      <point x="495" y="-10" type="line"/>
      <point x="703" y="538" type="line"/>
      <point x="692" y="540" type="line"/>
      <point x="699" y="40" type="line"/>
      <point x="729" y="73" type="line"/>
      <point x="601" y="60" type="line"/>
      <point x="601" y="0" type="line"/>
      <point x="957" y="0" type="line"/>
      <point x="957" y="60" type="line"/>
      <point x="839" y="74" type="line"/>
      <point x="871" y="40" type="line"/>
      <point x="839" y="603" type="line"/>
      <point x="811" y="569" type="line"/>
      <point x="925" y="582" type="line"/>
      <point x="925" y="642" type="line"/>
      <point x="645" y="642" type="line"/>
      <point x="500" y="238" type="line"/>
      <point x="520" y="238" type="line"/>
      <point x="369" y="642" type="line"/>
      <point x="60" y="642" type="line"/>
      <point x="60" y="582" type="line"/>
      <point x="175" y="568" type="line"/>
      <point x="147" y="602" type="line"/>
      <point x="108" y="40" type="line"/>
      <point x="140" y="74" type="line"/>
      <point x="32" y="60" type="line"/>
    </contour>
  </outline>
</glyph>
<glyph name="P" format="1">
  <advance width="663"/>
  <unicode hex="0050"/>
  <outline>
    <contour>
      <point x="32" y="0" type="line"/>
      <point x="419" y="0" type="line"/>
      <point x="419" y="60" type="line"/>
      <point x="270" y="73" type="line"/>
      <point x="300" y="40" type="line"/>
      <point x="300" y="565" type="line"/>
      <point x="342" y="565" type="line" smooth="yes"/>
      <point x="423" y="565"/>
      <point x="479" y="517"/>
      <point x="479" y="433" type="curve" smooth="yes"/>
      <point x="479" y="357"/>
      <point x="438" y="311"/>
      <point x="350" y="302" type="curve"/>
      <point x="350" y="242" type="line"/>
      <point x="500" y="228"/>
      <point x="646" y="286"/>
      <point x="646" y="437" type="curve" smooth="yes"/>
      <point x="646" y="589"/>
      <point x="510" y="642"/>
      <point x="358" y="642" type="curve" smooth="yes"/>
      <point x="32" y="642" type="line"/>
      <point x="32" y="582" type="line"/>
      <point x="160" y="568" type="line"/>
      <point x="130" y="605" type="line"/>
      <point x="130" y="40" type="line"/>
      <point x="160" y="74" type="line"/>
      <point x="32" y="60" type="line"/>
    </contour>
  </outline>
</glyph>
<glyph name="S" format="1">
  <advance width="548"/>
  <unicode hex="0053"/>
  <outline>
    <contour>
      <point x="256" y="-15" type="curve" smooth="yes"/>
      <point x="397" y="-15"/>
      <point x="518" y="57"/>
      <point x="518" y="198" type="curve" smooth="yes"/>
      <point x="518" y="327"/>
      <point x="418" y="360"/>
      <point x="331" y="391" type="curve" smooth="yes"/>
      <point x="265" y="415"/>
      <point x="207" y="437"/>
      <point x="207" y="499" type="curve" smooth="yes"/>
      <point x="207" y="545"/>
      <point x="246" y="568"/>
      <point x="292" y="568" type="curve" smooth="yes"/>
      <point x="317" y="568"/>
      <point x="348" y="563"/>
      <point x="400" y="540" type="curve"/>
      <point x="363" y="580" type="line"/>
      <point x="430" y="426" type="line"/>
      <point x="490" y="426" type="line"/>
      <point x="487" y="646" type="line"/>
      <point x="384" y="632" type="line"/>
      <point x="350" y="642"/>
      <point x="314" y="647"/>
      <point x="278" y="647" type="curve" smooth="yes"/>
      <point x="154" y="647"/>
      <point x="56" y="572"/>
      <point x="56" y="448" type="curve" smooth="yes"/>
      <point x="56" y="313"/>
      <point x="146" y="268"/>
      <point x="228" y="236" type="curve" smooth="yes"/>
      <point x="295" y="210"/>
      <point x="356" y="192"/>
      <point x="356" y="140" type="curve" smooth="yes"/>
      <point x="356" y="72"/>
      <point x="298" y="62"/>
      <point x="255" y="62" type="curve" smooth="yes"/>
      <point x="204" y="62"/>
      <point x="171" y="86"/>
      <point x="142" y="142" type="curve" smooth="yes"/>
      <point x="95" y="232" type="line"/>
      <point x="35" y="232" type="line"/>
      <point x="50" y="16" type="line"/>
      <point x="116" y="-8"/>
      <point x="186" y="-15"/>
    </contour>
    <contour>
      <point x="274.0" y="642.0" type="move" name="topuc"/>
    </contour>
    <contour>
      <point x="274.0" y="0.0" type="move" name="bottom"/>
    </contour>
  </outline>
</glyph>
<glyph name="T" format="1">
  <advance width="668"/>
  <unicode hex="0054"/>
  <outline>
    <contour>
      <point x="141" y="0" type="line"/>
      <point x="528" y="0" type="line"/>
      <point x="528" y="60" type="line"/>
      <point x="389" y="73" type="line"/>
      <point x="419" y="40" type="line"/>
      <point x="419" y="563" type="line"/>
      <point x="572" y="563" type="line"/>
      <point x="531" y="591" type="line"/>
      <point x="598" y="413" type="line"/>
      <point x="658" y="413" type="line"/>
      <point x="636" y="654" type="line"/>
      <point x="541" y="642" type="line"/>
      <point x="126" y="642" type="line"/>
      <point x="32" y="654" type="line"/>
      <point x="32" y="654"/>
      <point x="10" y="412"/>
      <point x="10" y="413" type="curve"/>
      <point x="70" y="413" type="line"/>
      <point x="137" y="591" type="line"/>
      <point x="96" y="563" type="line"/>
      <point x="249" y="563" type="line"/>
      <point x="249" y="40" type="line"/>
      <point x="279" y="73" type="line"/>
      <point x="141" y="60" type="line"/>
    </contour>
    <contour>
      <point x="334" y="642" type="move" name="topuc"/>
    </contour>
    <contour>
      <point x="334" y="0" type="move" name="bottom"/>
    </contour>
  </outline>
</glyph>
<glyph name="U" format="1">
  <advance width="805"/>
  <unicode hex="0055"/>
  <outline>
    <contour>
      <point x="406" y="-15" type="curve" smooth="yes"/>
      <point x="558" y="-15"/>
      <point x="688" y="66"/>
      <point x="687" y="218" type="curve" smooth="yes"/>
      <point x="685" y="602" type="line"/>
      <point x="655" y="568" type="line"/>
      <point x="783" y="582" type="line"/>
      <point x="783" y="642" type="line"/>
      <point x="483" y="642" type="line"/>
      <point x="483" y="582" type="line"/>
      <point x="621" y="569" type="line"/>
      <point x="591" y="602" type="line"/>
      <point x="593" y="224" type="line" smooth="yes"/>
      <point x="593" y="119"/>
      <point x="528" y="69"/>
      <point x="445" y="69" type="curve" smooth="yes"/>
      <point x="360" y="69"/>
      <point x="290" y="116"/>
      <point x="290" y="223" type="curve" smooth="yes"/>
      <point x="290" y="602" type="line"/>
      <point x="260" y="569" type="line"/>
      <point x="399" y="582" type="line"/>
      <point x="399" y="642" type="line"/>
      <point x="22" y="642" type="line"/>
      <point x="22" y="582" type="line"/>
      <point x="150" y="568" type="line"/>
      <point x="120" y="602" type="line"/>
      <point x="120" y="218" type="line" smooth="yes"/>
      <point x="120" y="64"/>
      <point x="252" y="-15"/>
    </contour>
    <contour>
      <point x="402.0" y="642.0" type="move" name="topuc"/>
    </contour>
    <contour>
      <point x="402.0" y="0.0" type="move" name="bottom"/>
    </contour>
    <contour>
      <point x="478.0" y="0.0" type="move" name="ogonek"/>
    </contour>
  </outline>
</glyph>
<glyph name="V" format="1">
  <advance width="707"/>
  <unicode hex="0056"/>
  <outline>
    <contour>
      <point x="306" y="-20" type="line"/>
      <point x="393" y="-20" type="line"/>
      <point x="641" y="605" type="line"/>
      <point x="600" y="573" type="line"/>
      <point x="707" y="582" type="line"/>
      <point x="707" y="642" type="line"/>
      <point x="421" y="642" type="line"/>
      <point x="421" y="582" type="line"/>
      <point x="545" y="573" type="line"/>
      <point x="524" y="606" type="line"/>
      <point x="386" y="170" type="line"/>
      <point x="406" y="171" type="line"/>
      <point x="235" y="605" type="line"/>
      <point x="216" y="573" type="line"/>
      <point x="336" y="582" type="line"/>
      <point x="336" y="642" type="line"/>
      <point x="-10" y="642" type="line"/>
      <point x="-10" y="582" type="line"/>
      <point x="78" y="571" type="line"/>
      <point x="37" y="605" type="line"/>
    </contour>
  </outline>
</glyph>
<glyph name="W" format="1">
  <advance width="1007"/>
  <unicode hex="0057"/>
  <outline>
    <contour>
      <point x="256" y="-20" type="line"/>
      <point x="357" y="-20" type="line"/>
      <point x="505" y="436" type="line"/>
      <point x="486" y="435" type="line"/>
      <point x="646" y="-20" type="line"/>
      <point x="737" y="-20" type="line"/>
      <point x="943" y="603" type="line"/>
      <point x="904" y="571" type="line"/>
      <point x="1027" y="582" type="line"/>
      <point x="1027" y="642" type="line"/>
      <point x="731" y="642" type="line"/>
      <point x="731" y="582" type="line"/>
      <point x="858" y="571" type="line"/>
      <point x="836" y="604" type="line"/>
      <point x="723" y="176" type="line"/>
      <point x="739" y="176" type="line"/>
      <point x="608" y="642" type="line"/>
      <point x="466" y="642" type="line"/>
      <point x="332" y="176" type="line"/>
      <point x="348" y="176" type="line"/>
      <point x="240" y="604" type="line"/>
      <point x="208" y="571" type="line"/>
      <point x="336" y="582" type="line"/>
      <point x="336" y="642" type="line"/>
      <point x="-20" y="642" type="line"/>
      <point x="-20" y="582" type="line"/>
      <point x="74" y="568" type="line"/>
      <point x="45" y="603" type="line"/>
    </contour>
    <contour>
      <point x="528.0" y="642.0" type="move" name="topuc"/>
    </contour>
  </outline>
</glyph>
<glyph name="X" format="1">
  <advance width="746"/>
  <unicode hex="0058"/>
  <outline>
    <contour>
      <point x="0" y="0" type="line"/>
      <point x="289" y="0" type="line"/>
      <point x="289" y="60" type="line"/>
      <point x="185" y="75" type="line"/>
      <point x="197" y="47" type="line"/>
      <point x="362" y="272" type="line"/>
      <point x="326" y="272" type="line"/>
      <point x="490" y="46" type="line"/>
      <point x="502" y="74" type="line"/>
      <point x="400" y="60" type="line"/>
      <point x="400" y="0" type="line"/>
      <point x="746" y="0" type="line"/>
      <point x="746" y="60" type="line"/>
      <point x="641" y="74" type="line"/>
      <point x="689" y="46" type="line"/>
      <point x="438" y="375" type="line"/>
      <point x="436" y="329" type="line"/>
      <point x="659" y="587" type="line"/>
      <point x="609" y="568" type="line"/>
      <point x="721" y="582" type="line"/>
      <point x="721" y="642" type="line"/>
      <point x="434" y="642" type="line"/>
      <point x="434" y="582" type="line"/>
      <point x="534" y="569" type="line"/>
      <point x="522" y="590" type="line"/>
      <point x="373" y="399" type="line"/>
      <point x="409" y="399" type="line"/>
      <point x="263" y="590" type="line"/>
      <point x="251" y="569" type="line"/>
      <point x="353" y="582" type="line"/>
      <point x="353" y="642" type="line"/>
      <point x="4" y="642" type="line"/>
      <point x="4" y="582" type="line"/>
      <point x="109" y="568" type="line"/>
      <point x="61" y="589" type="line"/>
      <point x="292" y="303" type="line"/>
      <point x="293" y="350" type="line"/>
      <point x="58" y="48" type="line"/>
      <point x="107" y="75" type="line"/>
      <point x="0" y="60" type="line"/>
    </contour>
  </outline>
</glyph>
<glyph name="Y" format="1">
  <advance width="678"/>
  <unicode hex="0059"/>
  <outline>
    <contour>
      <point x="152" y="0" type="line"/>
      <point x="519" y="0" type="line"/>
      <point x="519" y="60" type="line"/>
      <point x="390" y="73" type="line"/>
      <point x="420" y="40" type="line"/>
      <point x="420" y="272" type="line"/>
      <point x="606" y="591" type="line"/>
      <point x="561" y="568" type="line"/>
      <point x="678" y="582" type="line"/>
      <point x="678" y="642" type="line"/>
      <point x="413" y="642" type="line"/>
      <point x="413" y="582" type="line"/>
      <point x="506" y="566" type="line"/>
      <point x="490" y="591" type="line"/>
      <point x="368" y="337" type="line"/>
      <point x="397" y="337" type="line"/>
      <point x="261" y="591" type="line"/>
      <point x="246" y="568" type="line"/>
      <point x="350" y="582" type="line"/>
      <point x="350" y="642" type="line"/>
      <point x="-10" y="642" type="line"/>
      <point x="-10" y="582" type="line"/>
      <point x="98" y="568" type="line"/>
      <point x="52" y="590" type="line"/>
      <point x="250" y="272" type="line"/>
      <point x="250" y="40" type="line"/>
      <point x="280" y="73" type="line"/>
      <point x="152" y="60" type="line"/>
    </contour>
    <contour>
      <point x="339.0" y="642.0" type="move" name="topuc"/>
    </contour>
    <contour>
      <point x="339.0" y="0.0" type="move" name="bottom"/>
    </contour>
  </outline>
</glyph>
<glyph name="bracketleft" format="1">
  <advance width="289"/>
  <unicode hex="005B"/>
  <outline>
    <contour>
      <point x="156" y="-79" type="line"/>
      <point x="156" y="664" type="line"/>
      <point x="269" y="680" type="line"/>
      <point x="269" y="725" type="line"/>
      <point x="50" y="725" type="line"/>
      <point x="50" y="-140" type="line"/>
      <point x="269" y="-140" type="line"/>
      <point x="269" y="-95" type="line"/>
    </contour>
  </outline>
</glyph>
<glyph name="b" format="1">
  <advance width="594"/>
  <unicode hex="0062"/>
  <outline>
    <contour>
      <point x="74" y="17" type="line"/>
      <point x="135" y="-5"/>
      <point x="221" y="-15"/>
      <point x="265" y="-15" type="curve" smooth="yes"/>
      <point x="447" y="-15"/>
      <point x="569" y="78"/>
      <point x="569" y="261" type="curve" smooth="yes"/>
      <point x="569" y="385"/>
      <point x="494" y="474"/>
      <point x="390" y="474" type="curve" smooth="yes"/>
      <point x="331" y="474"/>
      <point x="281" y="442"/>
      <point x="241" y="398" type="curve" smooth="yes"/>
      <point x="219" y="374" type="line"/>
      <point x="229" y="336" type="line"/>
      <point x="248" y="350" type="line" smooth="yes"/>
      <point x="268" y="365"/>
      <point x="287" y="371"/>
      <point x="311" y="371" type="curve" smooth="yes"/>
      <point x="368" y="371"/>
      <point x="406" y="316"/>
      <point x="406" y="234" type="curve" smooth="yes"/>
      <point x="406" y="115"/>
      <point x="363" y="66"/>
      <point x="268" y="66" type="curve" smooth="yes"/>
      <point x="249" y="66"/>
      <point x="203" y="70"/>
      <point x="154" y="91" type="curve"/>
      <point x="229" y="2" type="line"/>
      <point x="229" y="580" type="line"/>
      <point x="239" y="676" type="line"/>
      <point x="8" y="638" type="line"/>
      <point x="8" y="583" type="line"/>
      <point x="103" y="565" type="line"/>
      <point x="74" y="602" type="line"/>
    </contour>
  </outline>
</glyph>
<glyph name="c" format="1">
  <advance width="460"/>
  <unicode hex="0063"/>
  <outline>
    <contour>
      <point x="243" y="-15" type="curve" smooth="yes"/>
      <point x="342" y="-15"/>
      <point x="420" y="45"/>
      <point x="450" y="134" type="curve"/>
      <point x="415" y="169" type="line"/>
      <point x="387" y="125"/>
      <point x="340" y="100"/>
      <point x="284" y="100" type="curve" smooth="yes"/>
      <point x="210" y="100"/>
      <point x="161" y="154"/>
      <point x="161" y="255" type="curve" smooth="yes"/>
      <point x="161" y="343"/>
      <point x="200" y="409"/>
      <point x="257" y="409" type="curve" smooth="yes"/>
      <point x="291" y="409"/>
      <point x="306" y="395"/>
      <point x="330" y="354" type="curve" smooth="yes"/>
      <point x="364" y="295" type="line"/>
      <point x="400" y="306"/>
      <point x="439" y="329"/>
      <point x="439" y="375" type="curve" smooth="yes"/>
      <point x="439" y="434"/>
      <point x="366" y="474"/>
      <point x="269" y="474" type="curve" smooth="yes"/>
      <point x="126" y="474"/>
      <point x="25" y="358"/>
      <point x="25" y="207" type="curve" smooth="yes"/>
      <point x="25" y="70"/>
      <point x="113" y="-15"/>
    </contour>
    <contour>
      <point x="257.0" y="464.0" type="move" name="toplc"/>
    </contour>
    <contour>
      <point x="255.0" y="0.0" type="move" name="bottom"/>
    </contour>
  </outline>
</glyph>
<glyph name="e" format="1">
  <advance width="502"/>
  <unicode hex="0065"/>
  <outline>
    <contour>
      <point x="255" y="-15" type="curve" smooth="yes"/>
      <point x="355" y="-15"/>
      <point x="439" y="41"/>
      <point x="473" y="130" type="curve"/>
      <point x="438" y="165" type="line"/>
      <point x="407" y="125"/>
      <point x="355" y="101"/>
      <point x="298" y="101" type="curve" smooth="yes"/>
      <point x="213" y="101"/>
      <point x="161" y="160"/>
      <point x="161" y="258" type="curve" smooth="yes"/>
      <point x="161" y="346"/>
      <point x="197" y="400"/>
      <point x="256" y="400" type="curve" smooth="yes"/>
      <point x="309" y="400"/>
      <point x="333" y="362"/>
      <point x="333" y="280" type="curve"/>
      <point x="103" y="275" type="line"/>
      <point x="103" y="212" type="line"/>
      <point x="466" y="212" type="line"/>
      <point x="476" y="387"/>
      <point x="420" y="474"/>
      <point x="267" y="474" type="curve" smooth="yes"/>
      <point x="128" y="474"/>
      <point x="25" y="359"/>
      <point x="25" y="205" type="curve" smooth="yes"/>
      <point x="25" y="65"/>
      <point x="109" y="-15"/>
    </contour>
    <contour>
      <point x="250.0" y="0.0" type="move" name="bottom"/>
    </contour>
    <contour>
      <point x="312.0" y="0.0" type="move" name="ogonek"/>
    </contour>
    <contour>
      <point x="267.0" y="464.0" type="move" name="toplc"/>
    </contour>
  </outline>
</glyph>
<glyph name="l" format="1">
  <advance width="298.0"/>
  <unicode hex="006C"/>
  <outline>
    <contour>
      <point x="12" y="0" type="line"/>
      <point x="291" y="0" type="line"/>
      <point x="291" y="55" type="line"/>
      <point x="199" y="63" type="line"/>
      <point x="229" y="30" type="line"/>
      <point x="229" y="580" type="line"/>
      <point x="239" y="676" type="line"/>
      <point x="8" y="642" type="line"/>
      <point x="8" y="587" type="line"/>
      <point x="103" y="565" type="line"/>
      <point x="74" y="602" type="line"/>
      <point x="74" y="30" type="line"/>
      <point x="104" y="63" type="line"/>
      <point x="12" y="55" type="line"/>
    </contour>
    <contour>
      <point x="149.0" y="0.0" type="move" name="bottom"/>
    </contour>
    <contour>
      <point x="264.0" y="674.0" type="move" name="right"/>
    </contour>
    <contour>
      <point x="149" y="676" type="move" name="topuc"/>
    </contour>
  </outline>
</glyph>
<glyph name="o" format="1">
  <advance width="561"/>
  <unicode hex="006F"/>
  <outline>
    <contour>
      <point x="300" y="61" type="curve" smooth="yes"/>
      <point x="241" y="55"/>
      <point x="200" y="116"/>
      <point x="190" y="225" type="curve" smooth="yes"/>
      <point x="181" y="329"/>
      <point x="207" y="394"/>
      <point x="260" y="399" type="curve" smooth="yes"/>
      <point x="318" y="405"/>
      <point x="358" y="348"/>
      <point x="368" y="245" type="curve" smooth="yes"/>
      <point x="379" y="134"/>
      <point x="354" y="66"/>
    </contour>
    <contour>
      <point x="293" y="474" type="curve" smooth="yes"/>
      <point x="138" y="474"/>
      <point x="25" y="369"/>
      <point x="25" y="225" type="curve" smooth="yes"/>
      <point x="25" y="87"/>
      <point x="128" y="-15"/>
      <point x="268" y="-15" type="curve" smooth="yes"/>
      <point x="423" y="-15"/>
      <point x="536" y="91"/>
      <point x="536" y="236" type="curve" smooth="yes"/>
      <point x="536" y="373"/>
      <point x="433" y="474"/>
    </contour>
    <contour>
      <point x="326" y="0" type="move" name="ogonek"/>
    </contour>
    <contour>
      <point x="377" y="430" type="move" name="right"/>
    </contour>
    <contour>
      <point x="280" y="464" type="move" name="toplc"/>
    </contour>
    <contour>
      <point x="280" y="0" type="move" name="bottom"/>
    </contour>
  </outline>
</glyph>
<glyph name="r" format="1">
  <advance width="417.24328731856747"/>
  <unicode hex="0072"/>
  <outline>
    <contour>
      <point x="12" y="0" type="line"/>
      <point x="317" y="0" type="line"/>
      <point x="317" y="55" type="line"/>
      <point x="199" y="62" type="line"/>
      <point x="229" y="30" type="line"/>
      <point x="229" y="356" type="line"/>
      <point x="208" y="304" type="line"/>
      <point x="262" y="361"/>
      <point x="285" y="377"/>
      <point x="354" y="352" type="curve" smooth="yes"/>
      <point x="393" y="338" type="line"/>
      <point x="437" y="420"/>
      <point x="420" y="474"/>
      <point x="351" y="474" type="curve" smooth="yes"/>
      <point x="309" y="474"/>
      <point x="271" y="442"/>
      <point x="213" y="350" type="curve"/>
      <point x="229" y="335" type="line"/>
      <point x="229" y="474" type="line"/>
      <point x="11" y="459" type="line"/>
      <point x="11" y="404" type="line"/>
      <point x="103" y="382" type="line"/>
      <point x="74" y="420" type="line"/>
      <point x="74" y="30" type="line"/>
      <point x="104" y="63" type="line"/>
      <point x="12" y="55" type="line"/>
    </contour>
    <contour>
      <point x="151.0" y="464.0" type="move" name="toplc"/>
    </contour>
    <contour>
      <point x="171.0" y="0.0" type="move" name="bottom"/>
    </contour>
  </outline>
</glyph>
<glyph name="s" format="1">
  <advance width="439.0220843324896"/>
  <unicode hex="0073"/>
  <outline>
    <contour>
      <point x="27" y="13" type="line"/>
      <point x="71" y="-10"/>
      <point x="125" y="-18"/>
      <point x="198" y="-18" type="curve" smooth="yes"/>
      <point x="323" y="-18"/>
      <point x="414" y="51"/>
      <point x="414" y="149" type="curve" smooth="yes"/>
      <point x="414" y="223"/>
      <point x="378" y="260"/>
      <point x="309" y="283" type="curve" smooth="yes"/>
      <point x="231" y="309" type="line" smooth="yes"/>
      <point x="191" y="322"/>
      <point x="173" y="342"/>
      <point x="173" y="368" type="curve" smooth="yes"/>
      <point x="173" y="403"/>
      <point x="197" y="420"/>
      <point x="248" y="420" type="curve" smooth="yes"/>
      <point x="266" y="420"/>
      <point x="297" y="415"/>
      <point x="342" y="405" type="curve"/>
      <point x="262" y="442" type="line"/>
      <point x="356" y="320" type="line"/>
      <point x="392" y="320" type="line"/>
      <point x="392" y="475" type="line"/>
      <point x="335" y="465" type="line"/>
      <point x="309" y="471"/>
      <point x="279" y="474"/>
      <point x="241" y="474" type="curve" smooth="yes"/>
      <point x="112" y="474"/>
      <point x="32" y="414"/>
      <point x="30" y="316" type="curve" smooth="yes"/>
      <point x="28" y="253"/>
      <point x="67" y="204"/>
      <point x="132" y="182" type="curve" smooth="yes"/>
      <point x="211" y="156" type="line" smooth="yes"/>
      <point x="242" y="145"/>
      <point x="260" y="126"/>
      <point x="260" y="100" type="curve" smooth="yes"/>
      <point x="260" y="60"/>
      <point x="231" y="40"/>
      <point x="193" y="40" type="curve" smooth="yes"/>
      <point x="151" y="40"/>
      <point x="124" y="67"/>
      <point x="102" y="104" type="curve" smooth="yes"/>
      <point x="65" y="166" type="line"/>
      <point x="25" y="166" type="line"/>
    </contour>
    <contour>
      <point x="219.0" y="477.0" type="move" name="toplc"/>
    </contour>
    <contour>
      <point x="219.0" y="0.0" type="move" name="bottom"/>
    </contour>
  </outline>
</glyph>
<glyph name="w" format="1">
  <advance width="803"/>
  <unicode hex="0077"/>
  <outline>
    <contour>
      <point x="204" y="-20" type="line"/>
      <point x="271" y="-20" type="line"/>
      <point x="404" y="341" type="line"/>
      <point x="372" y="341" type="line"/>
      <point x="504" y="-20" type="line"/>
      <point x="571" y="-20" type="line"/>
      <point x="750" y="427" type="line"/>
      <point x="724" y="403" type="line"/>
      <point x="803" y="409" type="line"/>
      <point x="803" y="464" type="line"/>
      <point x="565" y="464" type="line"/>
      <point x="565" y="409" type="line"/>
      <point x="682" y="402" type="line"/>
      <point x="665" y="450" type="line"/>
      <point x="572" y="121" type="line"/>
      <point x="597" y="121" type="line"/>
      <point x="488" y="461" type="line"/>
      <point x="374" y="461" type="line"/>
      <point x="256" y="94" type="line"/>
      <point x="296" y="94" type="line"/>
      <point x="204" y="444" type="line"/>
      <point x="179" y="402" type="line"/>
      <point x="285" y="409" type="line"/>
      <point x="285" y="464" type="line"/>
      <point x="0" y="464" type="line"/>
      <point x="0" y="409" type="line"/>
      <point x="74" y="400" type="line"/>
      <point x="34" y="444" type="line"/>
    </contour>
    <contour>
      <point x="401.0" y="464.0" type="move" name="toplc"/>
    </contour>
  </outline>
</glyph>
<glyph name="x" format="1">
  <advance width="568"/>
  <unicode hex="0078"/>
  <outline>
    <contour>
      <point x="272" y="0" type="line"/>
      <point x="568" y="0" type="line"/>
      <point x="568" y="55" type="line"/>
      <point x="496" y="61" type="line"/>
      <point x="542" y="37" type="line"/>
      <point x="344.0" y="265.0" type="line"/>
      <point x="331.0" y="265.0" type="line"/>
      <point x="212" y="419" type="line"/>
      <point x="213" y="397" type="line"/>
      <point x="284" y="409" type="line"/>
      <point x="284" y="464" type="line"/>
      <point x="4" y="464" type="line"/>
      <point x="4" y="409" type="line"/>
      <point x="74" y="399" type="line"/>
      <point x="37" y="419" type="line"/>
      <point x="227.0" y="192.0" type="line"/>
      <point x="233.0" y="192.0" type="line"/>
      <point x="356.0" y="27.0" type="line"/>
      <point x="369" y="61" type="line"/>
      <point x="272" y="55" type="line"/>
    </contour>
    <contour>
      <point x="0" y="0" type="line"/>
      <point x="230.0" y="0.0" type="line"/>
      <point x="230.0" y="55.0" type="line"/>
      <point x="148.0" y="62.0" type="line"/>
      <point x="146.0" y="41.0" type="line"/>
      <point x="263.0" y="184.0" type="line"/>
      <point x="230.0" y="253.0" type="line"/>
      <point x="41.0" y="38.0" type="line"/>
      <point x="90.0" y="61.0" type="line"/>
      <point x="0.0" y="55.0" type="line"/>
    </contour>
    <contour>
      <point x="344" y="235" type="line"/>
      <point x="519" y="423" type="line"/>
      <point x="486" y="401" type="line"/>
      <point x="554" y="409" type="line"/>
      <point x="554" y="464" type="line"/>
      <point x="326" y="464" type="line"/>
      <point x="326" y="409" type="line"/>
      <point x="422" y="395" type="line"/>
      <point x="411" y="423" type="line"/>
      <point x="302" y="290" type="line"/>
    </contour>
  </outline>
</glyph>
<glyph name="z" format="1">
  <advance width="525"/>
  <unicode hex="007A"/>
  <outline>
    <contour>
      <point x="30" y="0" type="line"/>
      <point x="475" y="0" type="line"/>
      <point x="495" y="195" type="line"/>
      <point x="460" y="195" type="line"/>
      <point x="409" y="99" type="line" smooth="yes"/>
      <point x="393" y="69"/>
      <point x="380" y="60"/>
      <point x="354" y="60" type="curve" smooth="yes"/>
      <point x="179" y="60" type="line"/>
      <point x="191" y="26" type="line"/>
      <point x="478" y="417" type="line"/>
      <point x="478" y="464" type="line"/>
      <point x="51" y="464" type="line"/>
      <point x="51" y="271" type="line"/>
      <point x="96" y="271" type="line"/>
      <point x="179" y="431" type="line"/>
      <point x="135" y="404" type="line"/>
      <point x="338" y="404" type="line"/>
      <point x="328" y="438" type="line"/>
      <point x="30" y="47" type="line"/>
    </contour>
    <contour>
      <point x="262.0" y="464.0" type="move" name="toplc"/>
    </contour>
  </outline>
</glyph>
<glyph name="acute" format="1">
  <advance width="258"/>
  <unicode hex="00B4"/>
  <outline>
    <contour>
      <point x="88" y="680" type="line"/>
      <point x="51" y="528" type="line"/>
      <point x="77" y="514" type="line"/>
      <point x="238" y="677" type="line"/>
      <point x="238" y="684" type="line"/>
    </contour>
    <contour>
      <point x="71" y="464" type="move" name="_toplc"/>
    </contour>
  </outline>
</glyph>
<glyph name="AE" format="1">
  <advance width="998"/>
  <unicode hex="00C6"/>
  <outline>
    <contour>
      <point x="235" y="292" type="line"/>
      <point x="483" y="292" type="line"/>
      <point x="486" y="381" type="line"/>
      <point x="238" y="381" type="line"/>
    </contour>
    <contour>
      <point x="504" y="642" type="line"/>
      <point x="316" y="642" type="line"/>
      <point x="62" y="42" type="line"/>
      <point x="102" y="71" type="line"/>
      <point x="0" y="60" type="line"/>
      <point x="0" y="0" type="line"/>
      <point x="307" y="0" type="line"/>
      <point x="307" y="60" type="line"/>
      <point x="185" y="71" type="line"/>
      <point x="206" y="42" type="line"/>
      <point x="385" y="563" type="line"/>
      <point x="504" y="563" type="line"/>
    </contour>
    <contour>
      <point x="372" y="0" type="line"/>
      <point x="926" y="0" type="line"/>
      <point x="956" y="240" type="line"/>
      <point x="896" y="240" type="line"/>
      <point x="870" y="186" type="line" smooth="yes"/>
      <point x="848" y="140"/>
      <point x="830" y="83"/>
      <point x="779" y="82" type="curve" smooth="yes"/>
      <point x="680" y="80" type="line" smooth="yes"/>
      <point x="652" y="79"/>
      <point x="640" y="92"/>
      <point x="640" y="122" type="curve" smooth="yes"/>
      <point x="640" y="293" type="line"/>
      <point x="809" y="291" type="line"/>
      <point x="819" y="384" type="line"/>
      <point x="640" y="382" type="line"/>
      <point x="640" y="563" type="line"/>
      <point x="835" y="563" type="line"/>
      <point x="793" y="590" type="line"/>
      <point x="869" y="441" type="line"/>
      <point x="929" y="441" type="line"/>
      <point x="919" y="662" type="line"/>
      <point x="812" y="642" type="line"/>
      <point x="402" y="642" type="line"/>
      <point x="402" y="582" type="line"/>
      <point x="500" y="568" type="line"/>
      <point x="470" y="602" type="line"/>
      <point x="470" y="40" type="line"/>
      <point x="500" y="74" type="line"/>
      <point x="372" y="60" type="line"/>
    </contour>
    <contour>
      <point x="499" y="642" type="move" name="topuc"/>
    </contour>
  </outline>
</glyph>
<glyph name="Oslash" format="1">
  <advance width="757"/>
  <unicode hex="00D8"/>
  <outline>
    <contour>
      <point x="568" y="748" type="line"/>
      <point x="119" y="-59" type="line"/>
      <point x="200" y="-103" type="line"/>
      <point x="649" y="705" type="line"/>
    </contour>
    <component base="O"/>
    <contour>
      <point x="378" y="642" type="move" name="topuc"/>
    </contour>
  </outline>
</glyph>
<glyph name="oslash" format="1">
  <advance width="561"/>
  <unicode hex="00F8"/>
  <outline>
    <contour>
      <point x="413.0" y="541.0" type="line"/>
      <point x="82.0" y="-55.0" type="line"/>
      <point x="163.0" y="-99.0" type="line"/>
      <point x="496.0" y="497.0" type="line"/>
    </contour>
    <component base="o" xOffset="1"/>
    <contour>
      <point x="280" y="464" type="move" name="toplc"/>
    </contour>
  </outline>
</glyph>
<glyph name="dotlessi" format="1">
  <advance width="298"/>
  <unicode hex="0131"/>
  <outline>
    <contour>
      <point x="22" y="0" type="line"/>
      <point x="277" y="0" type="line"/>
      <point x="277" y="55" type="line"/>
      <point x="199" y="63" type="line"/>
      <point x="229" y="30" type="line"/>
      <point x="229" y="375" type="line"/>
      <point x="239" y="474" type="line"/>
      <point x="21" y="459" type="line"/>
      <point x="21" y="404" type="line"/>
      <point x="103" y="382" type="line"/>
      <point x="74" y="420" type="line"/>
      <point x="74" y="30" type="line"/>
      <point x="104" y="63" type="line"/>
      <point x="22" y="55" type="line"/>
    </contour>
    <contour>
      <point x="149" y="464" type="move" name="toplc"/>
    </contour>
  </outline>
</glyph>
<glyph name="circumflex" format="1">
  <advance width="326"/>
  <unicode hex="02C6"/>
  <outline>
    <contour>
      <point x="24" y="528" type="line"/>
      <point x="51" y="512" type="line"/>
      <point x="162" y="573" type="line"/>
      <point x="274" y="512" type="line"/>
      <point x="301" y="528" type="line"/>
      <point x="173" y="685" type="line"/>
      <point x="151" y="685" type="line"/>
    </contour>
    <contour>
      <point x="162.0" y="464.0" type="move" name="_toplc"/>
    </contour>
  </outline>
</glyph>
<glyph name="caron" format="1">
  <advance width="326"/>
  <unicode hex="02C7"/>
  <outline>
    <component base="circumflex" xScale="-1" yScale="-1" xOffset="325" yOffset="1179"/>
    <contour>
      <point x="163" y="464" type="move" name="_toplc"/>
    </contour>
  </outline>
</glyph>
<glyph name="breve" format="1">
  <advance width="366"/>
  <unicode hex="02D8"/>
  <outline>
    <contour>
      <point x="183" y="602" type="curve" smooth="yes"/>
      <point x="139" y="602"/>
      <point x="107" y="625"/>
      <point x="94" y="669" type="curve"/>
      <point x="63" y="669" type="line"/>
      <point x="63" y="660" type="line" smooth="yes"/>
      <point x="63" y="576"/>
      <point x="109" y="529"/>
      <point x="183" y="529" type="curve" smooth="yes"/>
      <point x="257" y="529"/>
      <point x="303" y="576"/>
      <point x="303" y="660" type="curve" smooth="yes"/>
      <point x="303" y="669" type="line"/>
      <point x="273" y="669" type="line"/>
      <point x="260" y="625"/>
      <point x="227" y="602"/>
    </contour>
    <contour>
      <point x="183" y="463" type="move" name="_toplc"/>
    </contour>
  </outline>
</glyph>
<glyph name="ring" format="1">
  <advance width="282"/>
  <unicode hex="02DA"/>
  <outline>
    <contour>
      <point x="96" y="608" type="curve" smooth="yes"/>
      <point x="96" y="636"/>
      <point x="113" y="656"/>
      <point x="141" y="656" type="curve" smooth="yes"/>
      <point x="169" y="656"/>
      <point x="185" y="636"/>
      <point x="185" y="608" type="curve" smooth="yes"/>
      <point x="185" y="583"/>
      <point x="168" y="563"/>
      <point x="141" y="563" type="curve" smooth="yes"/>
      <point x="113" y="563"/>
      <point x="96" y="582"/>
    </contour>
    <contour>
      <point x="47" y="608" type="curve" smooth="yes"/>
      <point x="47" y="555"/>
      <point x="88" y="519"/>
      <point x="141" y="519" type="curve" smooth="yes"/>
      <point x="194" y="519"/>
      <point x="236" y="555"/>
      <point x="236" y="608" type="curve" smooth="yes"/>
      <point x="236" y="661"/>
      <point x="194" y="698"/>
      <point x="141" y="698" type="curve" smooth="yes"/>
      <point x="88" y="698"/>
      <point x="47" y="661"/>
    </contour>
    <contour>
      <point x="141" y="464" type="move" name="_toplc"/>
    </contour>
  </outline>
</glyph>
<glyph name="ogonek" format="1">
  <advance width="372"/>
  <unicode hex="02DB"/>
  <outline>
    <contour>
      <point x="331" y="-136" type="line"/>
      <point x="284" y="-150" type="line"/>
      <point x="253" y="-150"/>
      <point x="232" y="-127"/>
      <point x="232" y="-96" type="curve" smooth="yes"/>
      <point x="232" y="-52"/>
      <point x="256" y="-16"/>
      <point x="289" y="12" type="curve"/>
      <point x="243" y="17" type="line"/>
      <point x="187" y="-23"/>
      <point x="134" y="-67"/>
      <point x="134" y="-136" type="curve" smooth="yes"/>
      <point x="134" y="-190"/>
      <point x="177" y="-223"/>
      <point x="231" y="-223" type="curve" smooth="yes"/>
      <point x="276" y="-223"/>
      <point x="311" y="-194"/>
      <point x="337" y="-157" type="curve"/>
    </contour>
    <contour>
      <point x="253.0" y="0.0" type="move" name="_ogonek"/>
    </contour>
  </outline>
</glyph>
<glyph name="cmb:RIGHTturnedabove" format="1">
  <advance width="279"/>
  <unicode hex="0315"/>
  <outline>
    <contour>
      <point x="110" y="642" type="curve"/>
      <point x="221" y="642" type="line"/>
      <point x="221" y="568"/>
      <point x="190" y="495"/>
      <point x="133" y="450" type="curve"/>
      <point x="102" y="462" type="line"/>
      <point x="119" y="522"/>
      <point x="115" y="582"/>
    </contour>
    <contour>
      <point x="89.0" y="642.0" type="move" name="_right"/>
    </contour>
  </outline>
</glyph>
<glyph name="guilsinglleft" format="1">
  <advance width="382"/>
  <unicode hex="2039"/>
  <outline>
    <contour>
      <point x="294" y="33" type="line"/>
      <point x="332" y="72" type="line"/>
      <point x="216" y="242" type="line"/>
      <point x="332" y="412" type="line"/>
      <point x="294" y="451" type="line"/>
      <point x="50" y="250" type="line"/>
      <point x="50" y="234" type="line"/>
    </contour>
  </outline>
</glyph>
<glyph name="caron.case" format="1">
  <advance width="288"/>
  <outline>
    <contour>
      <point x="113" y="693" type="line"/>
      <point x="175" y="693" type="line"/>
      <point x="307" y="846" type="line"/>
      <point x="270" y="851" type="line"/>
      <point x="144" y="788" type="line"/>
      <point x="18" y="851" type="line"/>
      <point x="-19" y="846" type="line"/>
    </contour>
    <contour>
      <point x="144.0" y="642.0" type="move" name="_topuc"/>
    </contour>
  </outline>
</glyph>
<glyph name="circumflex.case" format="1">
  <advance width="288"/>
  <outline>
    <contour>
      <point x="113" y="853" type="line"/>
      <point x="-19" y="700" type="line"/>
      <point x="18" y="695" type="line"/>
      <point x="144" y="758" type="line"/>
      <point x="270" y="695" type="line"/>
      <point x="307" y="700" type="line"/>
      <point x="175" y="853" type="line"/>
    </contour>
    <contour>
      <point x="144.0" y="642.0" type="move" name="_topuc"/>
    </contour>
  </outline>
</glyph>
<glyph name="dotaccent.case" format="1">
  <advance width="134"/>
  <outline>
    <contour>
      <point x="148" y="780" type="curve" smooth="yes"/>
      <point x="148" y="826"/>
      <point x="113" y="857"/>
      <point x="67" y="857" type="curve" smooth="yes"/>
      <point x="21" y="857"/>
      <point x="-14" y="826"/>
      <point x="-14" y="780" type="curve" smooth="yes"/>
      <point x="-14" y="735"/>
      <point x="21" y="703"/>
      <point x="67" y="703" type="curve" smooth="yes"/>
      <point x="113" y="703"/>
      <point x="148" y="735"/>
    </contour>
    <contour>
      <point x="67.0" y="642.0" type="move" name="_topuc"/>
    </contour>
  </outline>
</glyph>
<glyph name="hungarumlaut.case" format="1">
  <advance width="347"/>
  <outline>
    <contour>
      <point x="81" y="851" type="line"/>
      <point x="40" y="705" type="line"/>
      <point x="77" y="694" type="line"/>
      <point x="198" y="824" type="line"/>
      <point x="198" y="827" type="line"/>
    </contour>
    <contour>
      <point x="220" y="851" type="line"/>
      <point x="159" y="705" type="line"/>
      <point x="196" y="694" type="line"/>
      <point x="347" y="824" type="line"/>
      <point x="347" y="827" type="line"/>
    </contour>
    <contour>
      <point x="76.0" y="642.0" type="move" name="_topuc"/>
    </contour>
  </outline>
</glyph>
<glyph name="zero.ot" format="1">
  <advance width="577"/>
  <outline>
    <contour>
      <point x="289" y="92" type="curve" smooth="yes"/>
      <point x="213" y="92"/>
      <point x="160" y="152"/>
      <point x="159" y="239" type="curve" smooth="yes"/>
      <point x="158" y="334"/>
      <point x="210" y="398"/>
      <point x="289" y="398" type="curve" smooth="yes"/>
      <point x="365" y="398"/>
      <point x="417" y="334"/>
      <point x="418" y="239" type="curve" smooth="yes"/>
      <point x="419" y="152"/>
      <point x="366" y="92"/>
    </contour>
    <contour>
      <point x="289" y="-16" type="curve" smooth="yes"/>
      <point x="446" y="-16"/>
      <point x="555" y="88"/>
      <point x="555" y="238" type="curve" smooth="yes"/>
      <point x="555" y="395"/>
      <point x="445" y="506"/>
      <point x="288" y="506" type="curve" smooth="yes"/>
      <point x="132" y="506"/>
      <point x="22" y="395"/>
      <point x="22" y="239" type="curve" smooth="yes"/>
      <point x="22" y="89"/>
      <point x="132" y="-16"/>
    </contour>
  </outline>
</glyph>
